<?xml version="1.0" encoding="UTF-8" standalone="no"?>
<!DOCTYPE svg PUBLIC "-//W3C//DTD SVG 1.1//EN"
 "http://www.w3.org/Graphics/SVG/1.1/DTD/svg11.dtd">
<!-- Generated by graphviz version 2.47.0 (20210316.0004)
 -->
<!-- Title: dependencies Pages: 1 -->
<svg width="504pt" height="211pt"
 viewBox="0.00 0.00 504.00 211.00" xmlns="http://www.w3.org/2000/svg" xmlns:xlink="http://www.w3.org/1999/xlink">
<g id="graph0" class="graph" transform="scale(1 1) rotate(0) translate(4 207)">
<title>dependencies</title>
<polygon fill="white" stroke="transparent" points="-4,4 -4,-207 500,-207 500,4 -4,4"/>
<text text-anchor="start" x="227.01" y="-42.4" font-family="Times-12" font-weight="bold" font-size="14.00">Legend</text>
<polygon fill="#ffffb3" stroke="transparent" points="14,-10 14,-30 34,-30 34,-10 14,-10"/>
<text text-anchor="start" x="37.63" y="-15.4" font-family="Times-12" font-size="14.00"> &#160;Declarations</text>
<polygon fill="#8dd3c7" stroke="transparent" points="127,-10 127,-30 147,-30 147,-10 127,-10"/>
<text text-anchor="start" x="150.73" y="-15.4" font-family="Times-12" font-size="14.00"> &#160;Module</text>
<polygon fill="#80b1d3" stroke="transparent" points="213,-10 213,-30 233,-30 233,-10 213,-10"/>
<text text-anchor="start" x="236.78" y="-15.4" font-family="Times-12" font-size="14.00"> &#160;Bootstrap</text>
<polygon fill="#fdb462" stroke="transparent" points="310,-10 310,-30 330,-30 330,-10 310,-10"/>
<text text-anchor="start" x="333.67" y="-15.4" font-family="Times-12" font-size="14.00"> &#160;Providers</text>
<polygon fill="#fb8072" stroke="transparent" points="406,-10 406,-30 426,-30 426,-10 406,-10"/>
<text text-anchor="start" x="429.73" y="-15.4" font-family="Times-12" font-size="14.00"> &#160;Exports</text>
<g id="clust1" class="cluster">
<title>cluster_SeederModule</title>
<polygon fill="none" stroke="black" stroke-dasharray="1,5" points="99,-70 99,-195 397,-195 397,-70 99,-70"/>
</g>
<g id="clust3" class="cluster">
<title>cluster_SeederModule_imports</title>
<polygon fill="none" stroke="black" points="263,-78 263,-130 389,-130 389,-78 263,-78"/>
</g>
<g id="clust6" class="cluster">
<title>cluster_SeederModule_providers</title>
<polygon fill="none" stroke="black" points="107,-78 107,-130 255,-130 255,-78 107,-78"/>
</g>
<!-- DatabaseModule -->
<g id="node1" class="node">
<title>DatabaseModule</title>
<polygon fill="#8dd3c7" stroke="black" points="381.35,-122 378.35,-126 357.35,-126 354.35,-122 270.65,-122 270.65,-86 381.35,-86 381.35,-122"/>
<text text-anchor="middle" x="326" y="-99.8" font-family="Times,serif" font-size="14.00">DatabaseModule</text>
</g>
<!-- SeederModule -->
<g id="node2" class="node">
<title>SeederModule</title>
<polygon fill="#8dd3c7" stroke="black" points="301.64,-187 298.64,-191 277.64,-191 274.64,-187 204.36,-187 204.36,-151 301.64,-151 301.64,-187"/>
<text text-anchor="middle" x="253" y="-164.8" font-family="Times,serif" font-size="14.00">SeederModule</text>
</g>
<!-- DatabaseModule&#45;&gt;SeederModule -->
<g id="edge1" class="edge">
<title>DatabaseModule&#45;&gt;SeederModule</title>
<path fill="none" stroke="black" d="M286.2,-122.11C286.2,-122.11 286.2,-140.99 286.2,-140.99"/>
<polygon fill="black" stroke="black" points="282.7,-140.99 286.2,-150.99 289.7,-140.99 282.7,-140.99"/>
</g>
<!-- SeederService -->
<g id="node3" class="node">
<title>SeederService</title>
<ellipse fill="#fdb462" stroke="black" cx="181" cy="-104" rx="66.03" ry="18"/>
<text text-anchor="middle" x="181" y="-99.8" font-family="Times,serif" font-size="14.00">SeederService</text>
</g>
<!-- SeederService&#45;&gt;SeederModule -->
<g id="edge2" class="edge">
<title>SeederService&#45;&gt;SeederModule</title>
<path fill="none" stroke="black" d="M225.72,-117.47C225.72,-117.47 225.72,-140.86 225.72,-140.86"/>
<polygon fill="black" stroke="black" points="222.22,-140.86 225.72,-150.86 229.22,-140.86 222.22,-140.86"/>
</g>
</g>
</svg>
