<?xml version="1.0" encoding="UTF-8" standalone="no"?>
<!DOCTYPE svg PUBLIC "-//W3C//DTD SVG 1.1//EN"
 "http://www.w3.org/Graphics/SVG/1.1/DTD/svg11.dtd">
<!-- Generated by graphviz version 2.47.0 (20210316.0004)
 -->
<!-- Title: dependencies Pages: 1 -->
<svg width="535pt" height="211pt"
 viewBox="0.00 0.00 535.00 211.00" xmlns="http://www.w3.org/2000/svg" xmlns:xlink="http://www.w3.org/1999/xlink">
<g id="graph0" class="graph" transform="scale(1 1) rotate(0) translate(4 207)">
<title>dependencies</title>
<polygon fill="white" stroke="transparent" points="-4,4 -4,-207 531,-207 531,4 -4,4"/>
<text text-anchor="start" x="242.51" y="-42.4" font-family="Times-12" font-weight="bold" font-size="14.00">Legend</text>
<polygon fill="#ffffb3" stroke="transparent" points="29.5,-10 29.5,-30 49.5,-30 49.5,-10 29.5,-10"/>
<text text-anchor="start" x="53.13" y="-15.4" font-family="Times-12" font-size="14.00"> &#160;Declarations</text>
<polygon fill="#8dd3c7" stroke="transparent" points="142.5,-10 142.5,-30 162.5,-30 162.5,-10 142.5,-10"/>
<text text-anchor="start" x="166.23" y="-15.4" font-family="Times-12" font-size="14.00"> &#160;Module</text>
<polygon fill="#80b1d3" stroke="transparent" points="228.5,-10 228.5,-30 248.5,-30 248.5,-10 228.5,-10"/>
<text text-anchor="start" x="252.28" y="-15.4" font-family="Times-12" font-size="14.00"> &#160;Bootstrap</text>
<polygon fill="#fdb462" stroke="transparent" points="325.5,-10 325.5,-30 345.5,-30 345.5,-10 325.5,-10"/>
<text text-anchor="start" x="349.17" y="-15.4" font-family="Times-12" font-size="14.00"> &#160;Providers</text>
<polygon fill="#fb8072" stroke="transparent" points="421.5,-10 421.5,-30 441.5,-30 441.5,-10 421.5,-10"/>
<text text-anchor="start" x="445.23" y="-15.4" font-family="Times-12" font-size="14.00"> &#160;Exports</text>
<g id="clust1" class="cluster">
<title>cluster_AppModule</title>
<polygon fill="none" stroke="black" stroke-dasharray="1,5" points="8,-70 8,-195 519,-195 519,-70 8,-70"/>
</g>
<g id="clust3" class="cluster">
<title>cluster_AppModule_imports</title>
<polygon fill="none" stroke="black" points="154,-78 154,-130 511,-130 511,-78 154,-78"/>
</g>
<g id="clust6" class="cluster">
<title>cluster_AppModule_providers</title>
<polygon fill="none" stroke="black" points="16,-78 16,-130 146,-130 146,-78 16,-78"/>
</g>
<!-- DatabaseModule -->
<g id="node1" class="node">
<title>DatabaseModule</title>
<polygon fill="#8dd3c7" stroke="black" points="503.35,-122 500.35,-126 479.35,-126 476.35,-122 392.65,-122 392.65,-86 503.35,-86 503.35,-122"/>
<text text-anchor="middle" x="448" y="-99.8" font-family="Times,serif" font-size="14.00">DatabaseModule</text>
</g>
<!-- AppModule -->
<g id="node4" class="node">
<title>AppModule</title>
<polygon fill="#8dd3c7" stroke="black" points="309.66,-187 306.66,-191 285.66,-191 282.66,-187 226.34,-187 226.34,-151 309.66,-151 309.66,-187"/>
<text text-anchor="middle" x="268" y="-164.8" font-family="Times,serif" font-size="14.00">AppModule</text>
</g>
<!-- DatabaseModule&#45;&gt;AppModule -->
<g id="edge1" class="edge">
<title>DatabaseModule&#45;&gt;AppModule</title>
<path fill="none" stroke="black" d="M448,-122.11C448,-141.34 448,-169 448,-169 448,-169 319.75,-169 319.75,-169"/>
<polygon fill="black" stroke="black" points="319.75,-165.5 309.75,-169 319.75,-172.5 319.75,-165.5"/>
</g>
<!-- HealthModule -->
<g id="node2" class="node">
<title>HealthModule</title>
<polygon fill="#8dd3c7" stroke="black" points="374.37,-122 371.37,-126 350.37,-126 347.37,-122 277.63,-122 277.63,-86 374.37,-86 374.37,-122"/>
<text text-anchor="middle" x="326" y="-99.8" font-family="Times,serif" font-size="14.00">HealthModule</text>
</g>
<!-- HealthModule&#45;&gt;AppModule -->
<g id="edge2" class="edge">
<title>HealthModule&#45;&gt;AppModule</title>
<path fill="none" stroke="black" d="M293.7,-122.11C293.7,-122.11 293.7,-140.99 293.7,-140.99"/>
<polygon fill="black" stroke="black" points="290.2,-140.99 293.7,-150.99 297.2,-140.99 290.2,-140.99"/>
</g>
<!-- SeederModule -->
<g id="node3" class="node">
<title>SeederModule</title>
<polygon fill="#8dd3c7" stroke="black" points="259.64,-122 256.64,-126 235.64,-126 232.64,-122 162.36,-122 162.36,-86 259.64,-86 259.64,-122"/>
<text text-anchor="middle" x="211" y="-99.8" font-family="Times,serif" font-size="14.00">SeederModule</text>
</g>
<!-- SeederModule&#45;&gt;AppModule -->
<g id="edge3" class="edge">
<title>SeederModule&#45;&gt;AppModule</title>
<path fill="none" stroke="black" d="M243,-122.11C243,-122.11 243,-140.99 243,-140.99"/>
<polygon fill="black" stroke="black" points="239.5,-140.99 243,-150.99 246.5,-140.99 239.5,-140.99"/>
</g>
<!-- AppService -->
<g id="node5" class="node">
<title>AppService</title>
<ellipse fill="#fdb462" stroke="black" cx="81" cy="-104" rx="56.74" ry="18"/>
<text text-anchor="middle" x="81" y="-99.8" font-family="Times,serif" font-size="14.00">AppService</text>
</g>
<!-- AppService&#45;&gt;AppModule -->
<g id="edge4" class="edge">
<title>AppService&#45;&gt;AppModule</title>
<path fill="none" stroke="black" d="M81,-122.11C81,-141.34 81,-169 81,-169 81,-169 216.03,-169 216.03,-169"/>
<polygon fill="black" stroke="black" points="216.03,-172.5 226.03,-169 216.03,-165.5 216.03,-172.5"/>
</g>
</g>
</svg>
