<?xml version="1.0" encoding="UTF-8" standalone="no"?>
<!DOCTYPE svg PUBLIC "-//W3C//DTD SVG 1.1//EN"
 "http://www.w3.org/Graphics/SVG/1.1/DTD/svg11.dtd">
<!-- Generated by graphviz version 2.47.0 (20210316.0004)
 -->
<!-- Title: dependencies Pages: 1 -->
<svg width="504pt" height="211pt"
 viewBox="0.00 0.00 504.00 211.00" xmlns="http://www.w3.org/2000/svg" xmlns:xlink="http://www.w3.org/1999/xlink">
<g id="graph0" class="graph" transform="scale(1 1) rotate(0) translate(4 207)">
<title>dependencies</title>
<polygon fill="white" stroke="transparent" points="-4,4 -4,-207 500,-207 500,4 -4,4"/>
<text text-anchor="start" x="227.01" y="-42.4" font-family="Times-12" font-weight="bold" font-size="14.00">Legend</text>
<polygon fill="#ffffb3" stroke="transparent" points="14,-10 14,-30 34,-30 34,-10 14,-10"/>
<text text-anchor="start" x="37.63" y="-15.4" font-family="Times-12" font-size="14.00"> &#160;Declarations</text>
<polygon fill="#8dd3c7" stroke="transparent" points="127,-10 127,-30 147,-30 147,-10 127,-10"/>
<text text-anchor="start" x="150.73" y="-15.4" font-family="Times-12" font-size="14.00"> &#160;Module</text>
<polygon fill="#80b1d3" stroke="transparent" points="213,-10 213,-30 233,-30 233,-10 213,-10"/>
<text text-anchor="start" x="236.78" y="-15.4" font-family="Times-12" font-size="14.00"> &#160;Bootstrap</text>
<polygon fill="#fdb462" stroke="transparent" points="310,-10 310,-30 330,-30 330,-10 310,-10"/>
<text text-anchor="start" x="333.67" y="-15.4" font-family="Times-12" font-size="14.00"> &#160;Providers</text>
<polygon fill="#fb8072" stroke="transparent" points="406,-10 406,-30 426,-30 426,-10 406,-10"/>
<text text-anchor="start" x="429.73" y="-15.4" font-family="Times-12" font-size="14.00"> &#160;Exports</text>
<g id="clust1" class="cluster">
<title>cluster_AppModule</title>
<polygon fill="none" stroke="black" stroke-dasharray="1,5" points="45.5,-70 45.5,-195 450.5,-195 450.5,-70 45.5,-70"/>
</g>
<g id="clust3" class="cluster">
<title>cluster_AppModule_imports</title>
<polygon fill="none" stroke="black" points="191.5,-78 191.5,-130 442.5,-130 442.5,-78 191.5,-78"/>
</g>
<g id="clust6" class="cluster">
<title>cluster_AppModule_providers</title>
<polygon fill="none" stroke="black" points="53.5,-78 53.5,-130 183.5,-130 183.5,-78 53.5,-78"/>
</g>
<!-- HealthModule -->
<g id="node1" class="node">
<title>HealthModule</title>
<polygon fill="#8dd3c7" stroke="black" points="434.87,-122 431.87,-126 410.87,-126 407.87,-122 338.13,-122 338.13,-86 434.87,-86 434.87,-122"/>
<text text-anchor="middle" x="386.5" y="-99.8" font-family="Times,serif" font-size="14.00">HealthModule</text>
</g>
<!-- AppModule -->
<g id="node3" class="node">
<title>AppModule</title>
<polygon fill="#8dd3c7" stroke="black" points="301.16,-187 298.16,-191 277.16,-191 274.16,-187 217.84,-187 217.84,-151 301.16,-151 301.16,-187"/>
<text text-anchor="middle" x="259.5" y="-164.8" font-family="Times,serif" font-size="14.00">AppModule</text>
</g>
<!-- HealthModule&#45;&gt;AppModule -->
<g id="edge1" class="edge">
<title>HealthModule&#45;&gt;AppModule</title>
<path fill="none" stroke="black" d="M386.5,-122.11C386.5,-141.34 386.5,-169 386.5,-169 386.5,-169 311.44,-169 311.44,-169"/>
<polygon fill="black" stroke="black" points="311.44,-165.5 301.44,-169 311.44,-172.5 311.44,-165.5"/>
</g>
<!-- RepositoryModule -->
<g id="node2" class="node">
<title>RepositoryModule</title>
<polygon fill="#8dd3c7" stroke="black" points="319.99,-122 316.99,-126 295.99,-126 292.99,-122 199.01,-122 199.01,-86 319.99,-86 319.99,-122"/>
<text text-anchor="middle" x="259.5" y="-99.8" font-family="Times,serif" font-size="14.00">RepositoryModule</text>
</g>
<!-- RepositoryModule&#45;&gt;AppModule -->
<g id="edge2" class="edge">
<title>RepositoryModule&#45;&gt;AppModule</title>
<path fill="none" stroke="black" d="M259.5,-122.11C259.5,-122.11 259.5,-140.99 259.5,-140.99"/>
<polygon fill="black" stroke="black" points="256,-140.99 259.5,-150.99 263,-140.99 256,-140.99"/>
</g>
<!-- AppService -->
<g id="node4" class="node">
<title>AppService</title>
<ellipse fill="#fdb462" stroke="black" cx="118.5" cy="-104" rx="56.74" ry="18"/>
<text text-anchor="middle" x="118.5" y="-99.8" font-family="Times,serif" font-size="14.00">AppService</text>
</g>
<!-- AppService&#45;&gt;AppModule -->
<g id="edge3" class="edge">
<title>AppService&#45;&gt;AppModule</title>
<path fill="none" stroke="black" d="M118.5,-122.11C118.5,-141.34 118.5,-169 118.5,-169 118.5,-169 207.58,-169 207.58,-169"/>
<polygon fill="black" stroke="black" points="207.58,-172.5 217.58,-169 207.58,-165.5 207.58,-172.5"/>
</g>
</g>
</svg>
